<svg width="128" height="30" viewBox="0 0 128 30" fill="none" xmlns="http://www.w3.org/2000/svg">
<path d="M34.9786 20.9805H37.0393V16.5949H40.1392C42.5874 16.5949 43.9788 14.904 43.9788 12.9138C43.9788 10.9235 42.605 9.23266 40.1392 9.23266H34.9786V20.9805ZM41.8653 12.9138C41.8653 14.041 41.0199 14.7807 39.8574 14.7807H37.0393V11.0468H39.8574C41.0199 11.0468 41.8653 11.7865 41.8653 12.9138ZM46.424 15.1154C46.424 18.6203 48.9074 21.1918 52.43 21.1918C55.9525 21.1918 58.436 18.6203 58.436 15.1154C58.436 11.6104 55.9525 9.03892 52.43 9.03892C48.9074 9.03892 46.424 11.6104 46.424 15.1154ZM56.3224 15.1154C56.3224 17.5283 54.7901 19.3601 52.43 19.3601C50.0522 19.3601 48.5375 17.5283 48.5375 15.1154C48.5375 12.6848 50.0522 10.8707 52.43 10.8707C54.7901 10.8707 56.3224 12.6848 56.3224 15.1154ZM61.6781 20.9805H68.917V19.1663H63.7388V9.23266H61.6781V20.9805ZM70.9734 15.1154C70.9734 18.6203 73.4568 21.1918 76.9794 21.1918C80.502 21.1918 82.9854 18.6203 82.9854 15.1154C82.9854 11.6104 80.502 9.03892 76.9794 9.03892C73.4568 9.03892 70.9734 11.6104 70.9734 15.1154ZM80.8719 15.1154C80.8719 17.5283 79.3396 19.3601 76.9794 19.3601C74.6017 19.3601 73.087 17.5283 73.087 15.1154C73.087 12.6848 74.6017 10.8707 76.9794 10.8707C79.3396 10.8707 80.8719 12.6848 80.8719 15.1154ZM94.4176 20.9805H96.4078V9.23266H94.3471V17.5636L88.3411 9.23266H86.2276V20.9805H88.2883V12.4206L94.4176 20.9805ZM100.162 20.9805H102.223V9.23266H100.162V20.9805ZM105.978 20.9805H114.027V19.1663H108.039V15.908H113.904V14.0938H108.039V11.0468H114.027V9.23266H105.978V20.9805ZM125.257 20.9805H127.723L123.337 14.9392L127.458 9.23266H124.975L121.963 13.5478L118.934 9.23266H116.468L120.607 14.9569L116.204 20.9805H118.67L121.963 16.3835L125.257 20.9805Z" fill="white"/>
<path d="M25.8581 7.80603V15.0563L19.395 11.4294L12.9297 7.80344L19.395 4.17788L25.8581 0.556641V7.80603Z" fill="white"/>
<path d="M12.9284 15.0562V22.3056L6.46532 18.6822L0 15.0562L6.46532 11.4307L12.9284 7.80469V15.0562Z" fill="#92BE8D"/>
<path d="M0 7.80603V0.556641L6.46532 4.18263L12.9284 7.80819L6.46532 11.4294L0 15.0563V7.80603Z" fill="#489C6A"/>
<path d="M0 22.3067V15.0586L6.46532 18.6846L12.9284 22.3101L6.46532 25.9314L0 29.5574V22.3067Z" fill="white"/>
<path d="M19.395 11.4307L12.9297 7.80469V22.3056L19.395 25.9312L25.8581 29.5572V15.0575L19.395 11.4307Z" fill="#489C6A"/>
</svg>
